<svg width="200" height="50" viewBox="0 0 200 50" fill="none" xmlns="http://www.w3.org/2000/svg">

<g transform="matrix(1, 0, 0, 1, 125, 27)">
<path font-family="Abril Fatface" font-size="50" font-style="italic" font-weight="normal" style="stroke: none; stroke-width: 1; stroke-dasharray: none; stroke-linecap: butt; stroke-dashoffset: 0; stroke-linejoin: miter; stroke-miterlimit: 4; is-custom-font: none; font-file-url: none; fill: rgb(0,146,69); fill-rule: nonzero; opacity: 1; white-space: pre;" d="M-65.42-10.64L-65.42-11.19L-56.00-11.19L-56.00-10.64L-57.59-10.64L-57.59 1.89Q-57.59 5.80-59.36 7.59Q-61.13 9.37-64.67 9.37L-64.67 9.37Q-67.02 9.37-68.40 8.47Q-69.77 7.57-69.77 5.95L-69.77 5.95Q-69.77 4.70-69.08 3.99Q-68.38 3.28-67.18 3.28Q-65.98 3.28-65.38 3.89Q-64.79 4.50-64.79 5.35Q-64.79 6.21-65.11 7.08L-65.11 7.08L-66.24 7.08Q-66.50 7.52-66.50 7.91Q-66.50 8.30-66.11 8.57Q-65.71 8.85-65.08 8.85L-65.08 8.85Q-63.92 8.85-63.58 7.94Q-63.25 7.02-63.25 3.98L-63.25 3.98L-63.25-10.64L-65.42-10.64ZM-46.28 3.40L-46.28 3.40L-46.28 0.93Q-46.28-1.88-46.59-3.17Q-46.89-4.46-48.00-4.46L-48.00-4.46Q-48.63-4.46-49.02-4.10Q-49.42-3.74-49.59-2.90L-49.59-2.90Q-49.85-1.59-49.85 1.08L-49.85 1.08L-49.85 3.34Q-49.85 6.50-49.66 7.14Q-49.47 7.78-49.27 8.18L-49.27 8.18Q-48.95 8.88-48.02 8.88L-48.02 8.88Q-46.89 8.88-46.55 7.57L-46.55 7.57Q-46.28 6.65-46.28 3.40ZM-48.08 9.40Q-51.71 9.40-53.56 7.54Q-55.42 5.69-55.42 2.22Q-55.42-1.24-53.43-3.11Q-51.45-4.98-47.85-4.98Q-44.25-4.98-42.48-3.26Q-40.72-1.53-40.72 2.01L-40.72 2.01Q-40.72 9.40-48.08 9.40L-48.08 9.40ZM-29.32 1.31Q-29.32-1.68-29.61-2.71Q-29.90-3.74-30.74-3.74Q-31.58-3.74-32.25-2.69Q-32.91-1.65-32.91 0.18L-32.91 0.18L-32.91 5.57Q-32.91 6.82-32.41 7.69Q-31.90 8.56-30.96 8.56Q-30.02 8.56-29.67 7.28Q-29.32 6.01-29.32 2.82L-29.32 2.82L-29.32 1.31ZM-39.90-12.64L-32.91-12.64L-32.91-2.49Q-31.81-4.98-29.15-4.98L-29.15-4.98Q-23.72-4.98-23.72 2.24L-23.72 2.24Q-23.72 5.92-25.22 7.66Q-26.71 9.40-29.70 9.40L-29.70 9.40Q-31.20 9.40-32.00 8.94Q-32.80 8.47-33.09 7.40L-33.09 7.40L-33.29 9.11L-39.90 9.11L-39.90 8.59L-38.31 8.59L-38.31-12.12L-39.90-12.12L-39.90-12.64ZM2.78-1.39L2.78-1.39Q2.78 4.59-0.58 6.94L-0.58 6.94Q-3.68 9.11-9.11 9.11L-9.11 9.11L-17.31 9.11L-17.31 8.56L-15.40 8.56L-15.40-10.64L-17.31-10.64L-17.31-11.19L-8.35-11.19Q-2.78-11.19-0.00-8.91Q2.78-6.64 2.78-1.39ZM-9.74-10.64L-9.74 8.56L-8.64 8.56Q-5.71 8.56-4.45 6.49Q-3.19 4.41-3.19-0.46L-3.19-0.46L-3.19-2.14Q-3.19-8.67-5.68-10.00L-5.68-10.00Q-6.87-10.64-9.05-10.64L-9.05-10.64L-9.74-10.64ZM11.89 9.40Q8.15 9.40 6.28 7.47Q4.41 5.54 4.41 2.11Q4.41-1.33 6.51-3.16Q8.61-4.98 11.86-4.98L11.86-4.98Q18.44-4.98 18.18 1.63L18.18 1.63L10.00 1.63L10.00 2.76Q10.00 5.60 10.73 7.05Q11.45 8.50 13.25 8.50L13.25 8.50Q16.62 8.50 17.66 4.91L17.66 4.91L18.18 4.99Q17.63 7.08 16.20 8.24Q14.76 9.40 11.89 9.40L11.89 9.40ZM10.03-0.37L10.03 1.05L13.02 1.05L13.02-0.37Q13.02-2.72 12.75-3.58Q12.47-4.43 11.64-4.43Q10.82-4.43 10.43-3.52Q10.03-2.61 10.03-0.37L10.03-0.37ZM36.77 9.11L28.71 9.11L28.71 8.59L30.04 8.59L26.77 1.86L26.22 2.01L26.22 8.59L27.55 8.59L27.55 9.11L19.23 9.11L19.23 8.59L20.82 8.59L20.82-12.12L19.11-12.12L19.11-12.64L26.22-12.64L26.22 1.43L26.68 1.25L33.20-4.17L30.48-4.17L30.48-4.69L36.19-4.69L36.19-4.17L34.16-4.17L30.71-1.24L35.73 8.59L36.77 8.59L36.77 9.11ZM37.21-12.12L37.21-12.64L44.20-12.64L44.20-2.03Q44.66-3.36 45.62-4.17Q46.57-4.98 48.52-4.98L48.52-4.98Q53.01-4.98 53.01-0.14L53.01-0.14L53.01 8.59L54.64 8.59L54.64 9.11L46.43 9.11L46.43 8.59L47.62 8.59L47.62-0.84Q47.62-2.58 47.39-3.08Q47.15-3.59 46.55-3.59L46.55-3.59Q45.62-3.59 44.91-2.37Q44.20-1.16 44.20 0.58L44.20 0.58L44.20 8.59L45.44 8.59L45.44 9.11L37.21 9.11L37.21 8.59L38.80 8.59L38.80-12.12L37.21-12.12ZM64.44 3.40L64.44 3.40L64.44 0.93Q64.44-1.88 64.13-3.17Q63.83-4.46 62.73-4.46L62.73-4.46Q62.09-4.46 61.70-4.10Q61.31-3.74 61.13-2.90L61.13-2.90Q60.87-1.59 60.87 1.08L60.87 1.08L60.87 3.34Q60.87 6.50 61.06 7.14Q61.25 7.78 61.45 8.18L61.45 8.18Q61.77 8.88 62.70 8.88L62.70 8.88Q63.83 8.88 64.18 7.57L64.18 7.57Q64.44 6.65 64.44 3.40ZM62.64 9.40Q59.02 9.40 57.16 7.54Q55.30 5.69 55.30 2.22Q55.30-1.24 57.29-3.11Q59.28-4.98 62.87-4.98Q66.47-4.98 68.24-3.26Q70.01-1.53 70.01 2.01L70.01 2.01Q70.01 9.40 62.64 9.40L62.64 9.40Z" fill="#007f00"/>
</g>

<rect width="50" height="50" rx="10" fill="#007f00"/>
<path d="M26.0039 9.5625H31.8633V29.25C31.8633 31.0599 31.4596 32.6615 30.6523 34.0547C29.8581 35.4349 28.7318 36.5026 27.2734 37.2578C25.8151 38.013 24.168 38.3906 22.332 38.3906C19.3242 38.3906 16.9805 37.6289 15.3008 36.1055C13.6211 34.569 12.7812 32.401 12.7812 29.6016H18.6797C18.6797 30.9948 18.9727 32.0234 19.5586 32.6875C20.1445 33.3516 21.069 33.6836 22.332 33.6836C23.4518 33.6836 24.3438 33.2995 25.0078 32.5312C25.6719 31.763 26.0039 30.6693 26.0039 29.25V9.5625Z" fill="white"/>
</svg>
